<?xml version="1.0" encoding="utf-8"?>
<!-- Generator: Adobe Illustrator 23.1.1, SVG Export Plug-In . SVG Version: 6.00 Build 0)  -->
<svg version="1.1" xmlns="http://www.w3.org/2000/svg" xmlns:xlink="http://www.w3.org/1999/xlink" x="0px" y="0px"
	 width="20" height="20" style="enable-background:new 0 0 20 20;" xml:space="preserve">
<style type="text/css">
	.st0{display:none;}
	.st1{display:inline;}
	.st2{fill-rule:evenodd;clip-rule:evenodd;fill:#FFFFFF;}
	.st3{fill-rule:evenodd;clip-rule:evenodd;fill:#005A97;}
	.st4{fill:#1D5632;}
</style>
<g id="Layer_1" class="st0">
	<g>
		<g transform="translate(-.007)" class="st1">
			<g>
				<path class="st2" d="M0-0.5h20v21H0V-0.5z"/>
				<g transform="translate(.007)">
					<path class="st3" d="M0-0.5h20v21H0V-0.5z"/>
				</g>
			</g>
		</g>
	</g>
	<g class="st1">
		<g>
			<path class="st4" d="M11.2-0.2v9h8.7v2.3h-8.7v9.1H8.8v-9.1H0.1V8.8h8.7v-9C8.8-0.2,11.2-0.2,11.2-0.2z"/>
		</g>
	</g>
</g>
<g id="Layer_2">
	<g>
		<g class="st0">
			<g transform="translate(-.007)" class="st1">
				<g>
					<path class="st3" d="M0-0.5h20v21H0V-0.5z"/>
					<g transform="translate(.007)">
						<path class="st3" d="M0-0.5h20v21H0V-0.5z"/>
					</g>
				</g>
			</g>
		</g>
		<g>
			<g>
				<path class="st4" d="M11.2-0.3v9.1H20v2.3h-8.8v9.2H8.8v-9.2H0V8.8h8.8v-9.1C8.8-0.3,11.2-0.3,11.2-0.3z"/>
			</g>
		</g>
	</g>
</g>
</svg>
