<?xml version="1.0" encoding="utf-8"?>
<!-- Generator: Adobe Illustrator 23.1.1, SVG Export Plug-In . SVG Version: 6.00 Build 0)  -->
<svg version="1.1" xmlns="http://www.w3.org/2000/svg" xmlns:xlink="http://www.w3.org/1999/xlink" x="0px" y="0px"
	 viewBox="0 0 20 21" style="enable-background:new 0 0 20 21;" xml:space="preserve">
<style type="text/css">
	.st0{filter:url(#Adobe_OpacityMaskFilter);}
	.st1{fill-rule:evenodd;clip-rule:evenodd;fill:#FFFFFF;}
	.st2{mask:url(#b_3_);}
	.st3{filter:url(#Adobe_OpacityMaskFilter_1_);}
	.st4{mask:url(#d_3_);fill-rule:evenodd;clip-rule:evenodd;}
	.st5{display:none;}
	.st6{display:inline;filter:url(#Adobe_OpacityMaskFilter_2_);}
	.st7{display:inline;mask:url(#b_2_);}
	.st8{filter:url(#Adobe_OpacityMaskFilter_3_);}
	.st9{mask:url(#d_2_);fill-rule:evenodd;clip-rule:evenodd;fill:#005A97;}
	.st10{display:inline;}
	.st11{filter:url(#Adobe_OpacityMaskFilter_4_);}
	.st12{mask:url(#b_1_);}
	.st13{filter:url(#Adobe_OpacityMaskFilter_5_);}
	.st14{mask:url(#d_1_);fill-rule:evenodd;clip-rule:evenodd;fill:#1D5632;}
</style>
<g id="blck">
	<defs>
		<filter id="Adobe_OpacityMaskFilter" filterUnits="userSpaceOnUse" x="0" y="0" width="20" height="21">
			<feColorMatrix  type="matrix" values="1 0 0 0 0  0 1 0 0 0  0 0 1 0 0  0 0 0 1 0"/>
		</filter>
	</defs>
	<mask maskUnits="userSpaceOnUse" x="0" y="0" width="20" height="21" id="b_3_">
		<g class="st0">
			<path id="a_3_" class="st1" d="M11,0.5l0,9l9,0.1l0,2l-9-0.1v9H9v-9l-9-0.1l0-2l9,0.1v-9H11L11,0.5z"/>
		</g>
	</mask>
	<g class="st2">
		<path class="st1" d="M0,0h20v21H0L0,0z"/>
		<g transform="translate(.007)">
			<defs>
				<filter id="Adobe_OpacityMaskFilter_1_" filterUnits="userSpaceOnUse" x="0" y="0" width="20" height="21">
					<feColorMatrix  type="matrix" values="1 0 0 0 0  0 1 0 0 0  0 0 1 0 0  0 0 0 1 0"/>
				</filter>
			</defs>
			<mask maskUnits="userSpaceOnUse" x="0" y="0" width="20" height="21" id="d_3_">
				<g class="st3">
					<path id="c_3_" class="st1" d="M0,0h20v21H0V0z"/>
				</g>
			</mask>
			<path class="st4" d="M0,0h20v21H0V0z"/>
		</g>
	</g>
</g>
<g id="RUP" class="st5">
	<defs>
		<filter id="Adobe_OpacityMaskFilter_2_" filterUnits="userSpaceOnUse" x="0" y="0" width="20" height="21">
			<feColorMatrix  type="matrix" values="1 0 0 0 0  0 1 0 0 0  0 0 1 0 0  0 0 0 1 0"/>
		</filter>
	</defs>
	<mask maskUnits="userSpaceOnUse" x="0" y="0" width="20" height="21" id="b_2_" class="st10">
		<g style="filter:url(#Adobe_OpacityMaskFilter_2_);">
			<path id="a_2_" class="st1" d="M11,0.5l0,9l9,0.1l0,2l-9-0.1v9H9v-9l-9-0.1l0-2l9,0.1v-9H11L11,0.5z"/>
		</g>
	</mask>
	<g class="st7">
		<path class="st1" d="M0,0h20v21H0L0,0z"/>
		<g transform="translate(.007)">
			<defs>
				<filter id="Adobe_OpacityMaskFilter_3_" filterUnits="userSpaceOnUse" x="0" y="0" width="20" height="21">
					<feColorMatrix  type="matrix" values="1 0 0 0 0  0 1 0 0 0  0 0 1 0 0  0 0 0 1 0"/>
				</filter>
			</defs>
			<mask maskUnits="userSpaceOnUse" x="0" y="0" width="20" height="21" id="d_2_">
				<g class="st8">
					<path id="c_2_" class="st1" d="M0,0h20v21H0V0z"/>
				</g>
			</mask>
			<path class="st9" d="M0,0h20v21H0V0z"/>
		</g>
	</g>
</g>
<g id="MYGRO" class="st5">
	<g transform="translate(-.007)" class="st10">
		<defs>
			<filter id="Adobe_OpacityMaskFilter_4_" filterUnits="userSpaceOnUse" x="0" y="0" width="20" height="21">
				<feColorMatrix  type="matrix" values="1 0 0 0 0  0 1 0 0 0  0 0 1 0 0  0 0 0 1 0"/>
			</filter>
		</defs>
		<mask maskUnits="userSpaceOnUse" x="0" y="0" width="20" height="21" id="b_1_">
			<g class="st11">
				<path id="a_1_" class="st1" d="M11,0.5l0,9l9,0.1l0,2l-9-0.1v9H9v-9l-9-0.1l0-2l9,0.1v-9H11L11,0.5z"/>
			</g>
		</mask>
		<g class="st12">
			<path class="st1" d="M0,0h20v21H0L0,0z"/>
			<g transform="translate(.007)">
				<defs>
					<filter id="Adobe_OpacityMaskFilter_5_" filterUnits="userSpaceOnUse" x="0" y="0" width="20" height="21">
						<feColorMatrix  type="matrix" values="1 0 0 0 0  0 1 0 0 0  0 0 1 0 0  0 0 0 1 0"/>
					</filter>
				</defs>
				<mask maskUnits="userSpaceOnUse" x="0" y="0" width="20" height="21" id="d_1_">
					<g class="st13">
						<path id="c_1_" class="st1" d="M0,0h20v21H0V0z"/>
					</g>
				</mask>
				<path class="st14" d="M0,0h20v21H0V0z"/>
			</g>
		</g>
	</g>
</g>
</svg>
